<?xml version='1.0' encoding='UTF-8'?>
<svg xmlns="http://www.w3.org/2000/svg" xmlns:inkscape="http://www.inkscape.org/namespaces/inkscape" xmlns:ns2="http://sodipodi.sourceforge.net/DTD/sodipodi-0.dtd" width="210mm" height="196.875mm" viewBox="0 0 210 196.875" version="1.1" id="svg1" xml:space="preserve" inkscape:version="1.4.3 (0d15f75, 2025-12-25)" ns2:docname="checkmark-logo.svg"><ns2:namedview id="namedview1" pagecolor="#505050" bordercolor="#eeeeee" borderopacity="1" inkscape:showpageshadow="0" inkscape:pageopacity="0" inkscape:pagecheckerboard="0" inkscape:deskcolor="#d1d1d1" inkscape:document-units="mm" showgrid="true" inkscape:zoom="0.60365694" inkscape:cx="341.25343" inkscape:cy="414.14251" inkscape:current-layer="layer3"><inkscape:grid id="grid2" units="mm" originx="0" originy="0" spacingx="0.26458333" spacingy="0.26458334" empcolor="#0099e5" empopacity="0.30196078" color="#0099e5" opacity="0.14901961" empspacing="5" enabled="true" visible="true" /></ns2:namedview><defs id="defs1" /><g inkscape:groupmode="layer" id="logo-layer" inkscape:label="logo-layer"><g id="logo-art" style="display:inline" transform="translate(-0.00557332,-6.4593701)"><path style="display:inline;fill:#f3f4f6" d="m 101.00098,184.91156 c -8.701748,-0.47791 -16.473989,-2.07196 -24.506839,-5.02623 -4.630278,-1.70289 -10.523077,-4.624 -14.873711,-7.37303 -13.887252,-8.7749 -24.939744,-22.03191 -30.981254,-37.16074 -1.130065,-2.82984 -2.163912,-5.83162 -2.701651,-7.84423 -0.150682,-0.56397 -0.339224,-1.25611 -0.418982,-1.53809 -0.895817,-3.16714 -1.659289,-7.42946 -2.19194,-12.23718 -0.731165,-6.59952 -0.44109,-15.57862 0.727635,-22.523563 1.626817,-9.667062 4.707446,-18.228827 9.647997,-26.813964 5.823465,-10.119367 14.803291,-19.629405 24.642004,-26.096987 6.780263,-4.457078 13.155854,-7.468255 20.81543,-9.831081 0.845947,-0.260958 1.676513,-0.517738 1.845703,-0.570623 0.562167,-0.17572 4.088009,-1.01713 4.973144,-1.186794 0.47937,-0.09189 1.217652,-0.236049 1.640625,-0.320362 6.882703,-1.371942 16.076769,-1.845854 22.507329,-1.16015 7.48163,0.797783 12.75245,1.903792 19.37988,4.066598 4.25164,1.387489 10.82502,4.432775 14.9707,6.935562 13.11526,7.917808 23.31813,18.874656 30.14157,32.368982 5.34925,10.578909 8.08914,21.711742 8.51681,34.605892 0.0932,2.81133 -0.12326,7.76244 -0.47081,10.7666 -0.91572,7.91524 -2.7285,15.07251 -5.58372,22.0459 -3.65025,8.91506 -8.76214,16.81059 -15.60356,24.10034 -2.42809,2.5872 -5.62964,5.46435 -9.04363,8.12726 -5.17898,4.0396 -10.92082,7.42887 -17.23644,10.17426 -5.27933,2.29491 -12.22133,4.36086 -18.04688,5.37078 -2.75872,0.47826 -6.64322,0.92328 -9.4706,1.085 -1.6347,0.0935 -7.20975,0.11653 -8.67881,0.0359 z m 8.76943,-22.43551 c 8.78352,-0.71903 16.52885,-3.07048 24.14561,-7.33051 5.98742,-3.34874 11.39382,-7.87146 15.93931,-13.33402 5.29141,-6.35896 9.38557,-14.59066 11.37284,-22.86621 0.40809,-1.69939 0.99946,-5.00793 1.13633,-6.35742 0.0372,-0.36658 0.14593,-1.28943 0.24166,-2.05078 0.24977,-1.98639 0.2469,-8.98529 -0.005,-11.330566 -0.32048,-2.987951 -1.13155,-7.342951 -1.82361,-9.791715 -0.76039,-2.690545 -2.02425,-6.198933 -3.06619,-8.511507 -1.42438,-3.161417 -3.67742,-7.044349 -5.61416,-9.675587 -0.24326,-0.330484 -0.44229,-0.651068 -0.44229,-0.71241 0,-0.06134 1.30353,-1.429007 2.89673,-3.039257 3.04642,-3.07902 3.34853,-3.458839 3.85107,-4.841659 0.24503,-0.674231 0.27347,-0.895377 0.27472,-2.136361 0.002,-1.527049 -0.0863,-1.908867 -0.74294,-3.22998 -0.50651,-1.019011 -1.85274,-2.342714 -2.89925,-2.850728 -2.14215,-1.03988 -4.67558,-0.868307 -6.6327,0.449191 -0.26967,0.181536 -1.70228,1.545963 -3.18359,3.032061 -1.48131,1.486097 -2.73743,2.701996 -2.79137,2.701996 -0.0539,0 -0.80302,-0.540063 -1.66462,-1.200139 -1.76274,-1.350445 -4.81967,-3.387667 -6.6826,-4.453463 -2.35818,-1.349131 -6.48891,-3.278715 -8.57291,-4.004655 -3.51833,-1.225577 -6.58668,-2.068372 -9.43359,-2.591162 -2.62316,-0.481702 -6.2881,-0.891063 -9.22852,-1.030792 -2.30056,-0.109324 -7.493214,0.16555 -9.946285,0.526508 -0.592163,0.08713 -1.368349,0.201016 -1.724857,0.253072 -2.602868,0.380054 -7.428626,1.635659 -10.244519,2.665502 -3.591554,1.313522 -7.979453,3.44508 -10.640487,5.168947 -0.281983,0.182673 -0.858765,0.555067 -1.281739,0.827542 -3.289558,2.119095 -6.915788,5.163795 -10.014858,8.408797 -2.490057,2.607311 -4.438683,5.07381 -6.515614,8.247225 -1.43522,2.192923 -1.822694,2.869683 -3.140876,5.48584 -1.675667,3.325648 -2.773184,6.123266 -3.922083,9.997559 -0.941551,3.175079 -1.794501,7.979541 -2.033438,11.453861 -0.361041,5.24982 -0.143295,10.09968 0.659704,14.6936 0.45676,2.6131 0.797893,4.03906 1.783992,7.45717 0.983562,3.40933 3.277011,8.56709 5.415533,12.17906 1.25917,2.12674 3.612974,5.48446 5.046231,7.19849 4.510799,5.39446 9.935561,9.95699 15.643772,13.1573 7.486498,4.19731 15.791399,6.74202 24.250484,7.43059 2.27418,0.18512 7.35485,0.18757 9.58975,0.005 z m -6.975,-6.67884 c -7.212611,-0.27781 -14.591806,-2.16765 -20.971479,-5.37088 -1.933262,-0.97069 -2.173684,-1.10546 -4.355669,-2.44164 -4.368624,-2.67521 -8.960099,-6.76369 -12.408691,-11.04932 -6.269909,-7.79174 -10.063247,-17.36486 -10.927528,-27.57746 -0.159092,-1.87987 -0.159176,-6.18491 -1.56e-4,-7.99805 0.632212,-7.20843 2.110997,-12.833068 4.886587,-18.586401 2.712867,-5.623317 5.920694,-10.078852 10.396923,-14.440885 3.093862,-3.014931 6.65157,-5.64464 10.784337,-7.971329 2.800037,-1.57638 7.284321,-3.445962 10.034642,-4.183629 1.682064,-0.451148 4.033279,-1.028125 4.540071,-1.114111 0.294587,-0.04998 0.927824,-0.159252 1.407194,-0.242822 0.970766,-0.169237 2.956472,-0.417454 4.656439,-0.582063 1.47459,-0.142786 6.42532,-0.142641 8.10967,2.36e-4 5.59969,0.475002 10.18059,1.482588 14.61182,3.213926 4.48149,1.750976 8.08508,3.69932 11.79199,6.375547 0.76136,0.549663 1.55556,1.121099 1.76491,1.269856 0.20935,0.148758 0.38238,0.329927 0.38452,0.402599 0.006,0.191735 -15.85486,16.017772 -16.05266,16.017772 -0.0915,0 -0.58668,-0.279292 -1.10048,-0.62065 -2.69904,-1.79317 -6.82264,-3.353507 -10.52851,-3.983899 -6.11234,-1.039749 -11.95818,-0.175947 -17.585453,2.598487 -2.912529,1.435974 -4.988021,2.943307 -7.490054,5.439677 -2.241221,2.236148 -3.528771,3.971544 -4.930264,6.645146 -1.073421,2.047747 -1.88883,4.086414 -2.295336,5.738752 -0.169847,0.690382 -0.353924,1.420525 -0.409061,1.62254 -0.378807,1.387911 -0.745935,5.145831 -0.665342,6.810431 0.377573,7.7985 3.076601,14.12516 8.217127,19.26136 2.27418,2.27227 4.570869,3.91945 7.44923,5.34256 5.303433,2.62211 10.918603,3.52093 17.042643,2.72801 1.91382,-0.2478 2.37038,-0.33694 3.73163,-0.72861 5.00225,-1.43929 9.11717,-3.83965 12.62835,-7.3665 2.52942,-2.54072 4.69191,-5.80185 5.88867,-8.88037 0.15347,-0.39478 0.40931,-1.04687 0.56853,-1.4491 1.06165,-2.6819 1.69986,-6.81082 1.60664,-10.39416 -0.10565,-4.06157 -0.91539,-7.540704 -2.55838,-10.992335 l -0.72797,-1.529353 8.14465,-8.138363 c 7.79623,-7.790224 8.15286,-8.131009 8.33669,-7.966452 0.27634,0.247358 1.96276,2.834767 2.77173,4.252558 3.24229,5.682393 5.40765,12.431927 6.20766,19.349529 0.52813,4.566726 0.31874,10.755636 -0.51517,15.227046 -2.1371,11.45902 -7.9901,21.65099 -16.70559,29.08984 -4.41855,3.77133 -8.92068,6.48995 -14.35546,8.66858 -2.42566,0.97237 -4.37325,1.58457 -7.39882,2.32572 -3.39016,0.83046 -9.76567,1.39055 -13.98058,1.22821 z" id="target-body" /><path style="display:inline;fill:#99a2b2" d="m 100.74463,185.08246 c -1.618557,-0.081 -3.694649,-0.26371 -5.793458,-0.50986 -7.398916,-0.86774 -15.535164,-3.08669 -22.456054,-6.1243 -9.332773,-4.0962 -17.343239,-9.52059 -24.358736,-16.49484 -3.734732,-3.71277 -6.628572,-7.18225 -9.658646,-11.57992 -6.578863,-9.5482 -11.348364,-21.71809 -12.839451,-32.76123 -0.06473,-0.47937 -0.159103,-1.17151 -0.209726,-1.53809 -0.38427,-2.78261 -0.493442,-4.22479 -0.624852,-8.25439 -0.119254,-3.65682 -0.08675,-5.36463 0.16981,-8.920903 0.197559,-2.738494 0.717787,-6.980091 1.062699,-8.664551 0.05196,-0.253784 0.14748,-0.761352 0.212255,-1.127929 0.06478,-0.366577 0.158951,-0.851075 0.20928,-1.07666 0.05033,-0.225586 0.190778,-0.871583 0.312111,-1.435547 0.433025,-2.012725 0.901983,-3.755641 1.655384,-6.152344 0.501723,-1.596073 0.675263,-2.091538 1.670053,-4.768066 1.298901,-3.494753 3.53167,-8.097068 5.760505,-11.873889 5.959327,-10.098244 14.802824,-19.366765 24.590974,-25.772834 10.888307,-7.12609 22.138924,-11.189653 35.273437,-12.740264 3.314813,-0.391334 4.983165,-0.473873 9.536135,-0.471784 4.53732,0.0021 5.92003,0.08536 10.15137,0.611442 2.08516,0.259246 7.23761,1.169851 8.15185,1.440696 0.19739,0.05848 0.7511,0.197186 1.23047,0.308243 5.1224,1.186718 11.31727,3.451354 16.43449,6.007901 7.5257,3.759812 14.47479,8.722288 20.41506,14.578781 8.33602,8.218444 14.61655,17.941226 18.70727,28.960379 1.16199,3.130049 1.59575,4.5369 2.5694,8.333653 0.5469,2.132629 0.68164,2.747926 0.98796,4.511718 0.14692,0.845948 0.31251,1.791871 0.36798,2.102051 0.0555,0.310181 0.14526,0.933106 0.19953,1.384278 0.0543,0.451171 0.14386,1.166381 0.19908,1.589355 0.42686,3.269585 0.6142,6.385034 0.61657,10.253904 0.003,5.18002 -0.19279,7.73895 -1.02137,13.33668 -0.24176,1.6333 -0.87704,4.73324 -1.39172,6.7911 -1.474,5.89352 -3.47483,11.24402 -6.35585,16.99647 -3.53188,7.05198 -8.81087,14.24639 -14.64391,19.95727 -8.97668,8.78869 -19.23875,15.10794 -30.77834,18.95291 -6.55346,2.1836 -12.90184,3.47259 -19.94385,4.04944 -1.69575,0.1389 -8.35909,0.20365 -10.40771,0.10113 z m 8.93516,-0.20675 c 1.79664,-0.10276 4.46644,-0.36676 6.80459,-0.67286 4.20745,-0.55083 8.51444,-1.54438 13.53515,-3.12234 6.0839,-1.9121 12.09003,-4.68204 17.73926,-8.18109 6.41265,-3.9719 12.65312,-9.23652 17.67575,-14.91172 2.36164,-2.66848 5.64749,-7.04726 7.52192,-10.02383 4.34179,-6.89471 7.7523,-14.9743 9.80362,-23.2251 0.95869,-3.856 1.74903,-8.66784 2.11366,-12.86865 0.67324,-7.75627 0.0611,-16.90597 -1.65664,-24.763185 -2.55451,-11.68447 -7.95603,-22.956246 -15.55202,-32.453613 -5.69917,-7.125758 -13.02157,-13.492455 -21.18803,-18.422626 -4.14568,-2.502787 -10.71906,-5.548073 -14.9707,-6.935562 -6.62743,-2.162806 -11.89825,-3.268815 -19.37988,-4.066598 -6.43056,-0.685704 -15.624626,-0.211792 -22.507329,1.16015 -0.422973,0.08431 -1.161255,0.228475 -1.640625,0.320362 -0.885135,0.169664 -4.410977,1.011074 -4.973144,1.186794 -0.16919,0.05289 -0.999756,0.309665 -1.845703,0.570623 -3.893658,1.201116 -7.386736,2.54796 -10.766602,4.151336 -11.086245,5.259206 -20.517753,12.734728 -28.268789,22.406166 -6.353559,7.927722 -11.27534,17.485628 -14.11843,27.417441 -2.447418,8.549604 -3.512516,18.671232 -2.936635,27.906862 0.349689,5.60809 1.260839,11.41909 2.44933,15.62097 0.07976,0.28198 0.2683,0.97412 0.418982,1.53809 0.537739,2.01261 1.571586,5.01439 2.701651,7.84423 5.630011,14.09837 15.607609,26.58793 28.212699,35.31553 5.306586,3.67421 11.816378,7.07564 17.642266,9.21824 8.03285,2.95427 15.805091,4.54832 24.506839,5.02623 1.46906,0.0807 7.04411,0.0577 8.67881,-0.0359 z m -9.49913,-22.40427 c -8.459085,-0.68857 -16.763986,-3.23328 -24.250484,-7.43059 -4.619115,-2.58971 -9.22017,-6.19888 -12.982379,-10.18367 -2.165706,-2.29383 -3.572472,-4.01178 -5.264834,-6.42944 -3.041225,-4.34462 -5.359085,-8.81174 -7.12364,-13.72911 -0.531139,-1.48016 -0.646377,-1.85312 -1.348073,-4.36303 -1.048161,-3.74917 -1.681454,-7.77473 -1.944762,-12.36197 -0.295446,-5.14714 0.269275,-11.376463 1.496608,-16.508785 0.441396,-1.845779 0.576682,-2.343518 1.100871,-4.050293 1.052702,-3.427631 3.054724,-8.010281 4.972383,-11.381836 1.254526,-2.205661 3.475988,-5.3927 5.509534,-7.904298 3.21191,-3.966977 8.387053,-8.612644 12.661929,-11.36647 0.422974,-0.272475 0.999756,-0.644869 1.281739,-0.827542 2.661034,-1.723867 7.048933,-3.855425 10.640487,-5.168947 2.815893,-1.029843 7.641651,-2.285448 10.244519,-2.665502 0.356508,-0.05206 1.132694,-0.165938 1.724857,-0.253072 2.453071,-0.360958 7.645725,-0.635832 9.946285,-0.526508 2.94042,0.139729 6.60536,0.54909 9.22852,1.030792 2.84691,0.52279 5.91526,1.365585 9.43359,2.591162 2.084,0.72594 6.21473,2.655524 8.57291,4.004655 1.86293,1.065796 4.91986,3.103018 6.6826,4.453463 0.8616,0.660076 1.61068,1.200139 1.66462,1.200139 0.0539,0 1.31006,-1.215899 2.79137,-2.701996 1.48131,-1.486098 2.91392,-2.850525 3.18359,-3.032061 1.95712,-1.317498 4.49055,-1.489071 6.6327,-0.449191 1.04651,0.508014 2.39274,1.831717 2.89925,2.850728 0.65667,1.321113 0.74449,1.702931 0.74294,3.22998 -10e-4,1.240984 -0.0297,1.46213 -0.27472,2.136361 -0.50254,1.38282 -0.80465,1.762639 -3.85107,4.841659 -1.5932,1.61025 -2.89673,2.977916 -2.89673,3.039257 0,0.06134 0.19903,0.381926 0.44229,0.71241 1.93674,2.631238 4.18978,6.51417 5.61416,9.675587 1.04194,2.312574 2.3058,5.820962 3.06619,8.511507 0.69206,2.448764 1.50313,6.803764 1.82361,9.791715 0.25154,2.345276 0.25441,9.344176 0.005,11.330566 -0.0957,0.76135 -0.20448,1.6842 -0.24166,2.05078 -0.13687,1.34949 -0.72824,4.65803 -1.13633,6.35742 -1.3665,5.69048 -3.78029,11.51097 -6.82505,16.45752 -2.18313,3.54676 -4.25972,6.27039 -7.03612,9.22852 -8.85545,9.43507 -21.23965,15.7727 -34.16387,17.48343 -3.87996,0.51357 -9.27846,0.66143 -13.02247,0.35666 z m 10.26743,-6.92589 c 3.34042,-0.33609 5.43971,-0.71818 8.49722,-1.54657 5.12633,-1.3889 10.34568,-3.77751 14.77005,-6.75943 8.19233,-5.52143 14.35689,-12.92334 18.22705,-21.88555 1.44232,-3.34002 2.60471,-7.17618 3.29345,-10.86914 0.83391,-4.47141 1.0433,-10.66032 0.51517,-15.227046 -0.80001,-6.917602 -2.96537,-13.667136 -6.20766,-19.349529 -0.80897,-1.417791 -2.49539,-4.0052 -2.77173,-4.252558 -0.18383,-0.164557 -0.54046,0.176228 -8.33669,7.966452 l -8.14465,8.138363 0.72797,1.529353 c 2.54403,5.344579 3.22025,11.432025 1.9659,17.697315 -0.34761,1.73621 -0.58974,2.61704 -1.01416,3.68918 -0.15922,0.40223 -0.41506,1.05432 -0.56853,1.4491 -1.19676,3.07852 -3.35925,6.33965 -5.88867,8.88037 -3.51118,3.52685 -7.6261,5.92721 -12.62835,7.3665 -1.36125,0.39167 -1.81781,0.48081 -3.73163,0.72861 -2.97129,0.38471 -5.81855,0.36454 -8.71582,-0.0618 -4.72876,-0.69577 -9.829863,-2.95716 -13.637693,-6.04577 -1.190634,-0.96575 -3.149779,-2.92509 -4.099976,-4.10037 -3.883017,-4.80285 -5.930307,-10.40717 -6.255511,-17.12403 -0.08059,-1.6646 0.286535,-5.42252 0.665342,-6.810431 0.05514,-0.202015 0.239214,-0.932158 0.409061,-1.62254 0.406506,-1.652338 1.221915,-3.691005 2.295336,-5.738752 1.401493,-2.673602 2.689043,-4.408998 4.930264,-6.645146 2.502033,-2.49637 4.577525,-4.003703 7.490054,-5.439677 3.384141,-1.668495 6.556367,-2.5798 10.143543,-2.913998 2.95904,-0.275678 6.64183,0.01956 9.6465,0.773338 2.89622,0.726571 6.24601,2.145565 8.32392,3.526072 0.5138,0.341358 1.00902,0.62065 1.10048,0.62065 0.1978,0 16.05831,-15.826037 16.05266,-16.017772 -0.002,-0.07267 -0.17517,-0.253841 -0.38452,-0.402599 -0.20935,-0.148757 -1.00355,-0.720193 -1.76491,-1.269856 -3.70691,-2.676227 -7.3105,-4.624571 -11.79199,-6.375547 -4.43123,-1.731338 -9.01213,-2.738924 -14.61182,-3.213926 -1.68435,-0.142877 -6.63508,-0.143022 -8.10967,-2.36e-4 -1.699967,0.164609 -3.685673,0.412826 -4.656439,0.582063 -0.47937,0.08357 -1.112607,0.19284 -1.407194,0.242822 -0.506792,0.08599 -2.858007,0.662963 -4.540071,1.114111 -2.750321,0.737667 -7.234605,2.607249 -10.034642,4.183629 -4.132767,2.326689 -7.690475,4.956398 -10.784337,7.971329 -4.476229,4.362033 -7.684056,8.817568 -10.396923,14.440885 -2.77559,5.753333 -4.254375,11.377971 -4.886587,18.586401 -0.15902,1.81314 -0.158936,6.11818 1.56e-4,7.99805 0.559542,6.61171 2.311608,12.88661 5.196485,18.61084 1.354754,2.68813 2.28489,4.25012 3.782424,6.35187 1.885556,2.64634 2.997135,3.98409 5.063791,6.09413 3.729324,3.80761 6.504631,5.96558 11.290789,8.77925 1.248417,0.73391 4.259508,2.17605 5.949508,2.84947 5.775336,2.30132 11.441009,3.52497 17.38037,3.75374 1.912,0.0736 5.63699,-0.0489 7.65268,-0.25166 z m -1.14145,-22.59532 c 4.94489,-0.70491 9.54616,-2.65266 13.51132,-5.71944 1.20668,-0.93328 3.70781,-3.36666 4.45849,-4.33772 2.83246,-3.66399 4.78177,-7.87449 5.60168,-12.09961 1.00951,-5.20216 0.75113,-9.78296 -0.82318,-14.594218 -0.4293,-1.311988 -1.10287,-2.91117 -1.56221,-3.709006 -0.14611,-0.253784 -0.26622,-0.552332 -0.2669,-0.663439 -8.1e-4,-0.132534 4.5946,-4.791555 13.36126,-13.546229 10.4124,-10.398168 13.47297,-13.511556 13.86295,-14.102186 1.0596,-1.604792 1.4055,-3.440374 0.9737,-5.16715 -0.35787,-1.431092 -0.80121,-2.212685 -1.83811,-3.240485 -1.44196,-1.42931 -2.66413,-1.891632 -4.77656,-1.806863 -1.4274,0.05728 -2.13977,0.264565 -3.15028,0.916668 -0.63692,0.411014 -3.67184,3.371115 -9.59547,9.358917 -6.83885,6.91293 -17.4671,17.484165 -17.57847,17.484165 -0.0677,0 -0.57224,-0.302896 -1.12127,-0.673102 -2.27351,-1.532991 -6.03347,-3.064275 -9.26252,-3.772258 -3.05145,-0.669045 -7.24669,-0.802391 -10.51025,-0.334069 -4.871702,0.699092 -9.968557,3.016016 -13.791503,6.26933 -1.874012,1.594778 -4.332727,4.248005 -5.128317,5.534025 -0.104668,0.169189 -0.270454,0.399902 -0.368414,0.512695 -0.48405,0.557347 -2.14261,3.818185 -2.842417,5.588379 -0.700933,1.773043 -1.096357,3.318054 -1.548363,6.049806 -0.644852,3.89724 -0.266417,8.7734 0.98281,12.66357 1.505722,4.68892 3.665885,8.24164 7.002684,11.517 1.85441,1.82026 3.649388,3.17526 6.00358,4.53202 1.514847,0.87303 2.225765,1.18889 4.460449,1.98178 2.546303,0.90346 3.53976,1.12998 6.562501,1.49638 1.21302,0.14703 6.00999,0.0567 7.38281,-0.13896 z" id="target-outer-ring" /><path style="display:inline;fill:#40e0b8" d="m 98.822022,132.61764 c 0.0705,-0.0284 0.185852,-0.0284 0.256348,0 0.07049,0.0284 0.01282,0.0517 -0.128174,0.0517 -0.140991,0 -0.19867,-0.0233 -0.128174,-0.0517 z m 4.537358,-6.19981 c -1.77864,-0.13044 -3.06864,-0.36708 -4.768071,-0.87468 -2.252889,-0.67291 -4.125843,-1.57683 -6.306152,-3.04346 -1.615538,-1.08672 -4.097203,-3.60095 -5.196394,-5.26459 -2.686336,-4.0658 -3.875072,-8.23837 -3.690185,-12.95287 0.127881,-3.2609 0.76484,-5.865733 2.11874,-8.664553 2.502997,-5.174263 7.427955,-9.453179 12.868913,-11.180807 2.004339,-0.636423 3.054109,-0.838886 5.076019,-0.978985 2.87173,-0.198982 5.29198,0.0665 7.92291,0.869093 1.42393,0.434385 1.48552,0.458317 2.99716,1.164731 1.52154,0.711036 1.99952,1.004166 1.99952,1.226254 0,0.162906 -10.90759,11.226933 -11.12549,11.28505 -0.0564,0.01504 -0.842,-0.677004 -1.74579,-1.53788 -1.74073,-1.658084 -2.37773,-2.093164 -3.48796,-2.382343 -0.769234,-0.200359 -2.186705,-0.201461 -2.973468,-0.0023 -1.748801,0.442663 -3.366169,1.753183 -4.140685,3.355109 -1.067197,2.207275 -0.992086,4.375491 0.216549,6.251121 0.393335,0.6104 3.493473,3.81534 7.468894,7.72139 1.2997,1.27703 1.72844,1.63314 2.33239,1.93728 1.72856,0.87049 3.58972,0.88612 5.17078,0.0434 0.79495,-0.42371 1.23437,-0.84449 9.91823,-9.49753 3.85922,-3.84552 7.05079,-6.991853 7.09238,-6.991853 0.17886,0 1.0726,3.153013 1.30793,4.614253 0.28845,1.7911 0.35299,3.16643 0.22981,4.89739 -0.21825,3.06708 -0.89817,5.64117 -2.16397,8.19256 -0.94347,1.90167 -1.0417,2.06342 -2.04517,3.36757 -1.57858,2.05159 -3.18337,3.55223 -5.25301,4.91211 -2.99386,1.96714 -6.20591,3.11115 -9.82486,3.49926 -1.50445,0.16134 -2.19668,0.16744 -3.99902,0.0353 z m -19.12999,-1.96104 -0.301167,-0.33325 0.333252,0.30116 c 0.310638,0.28073 0.380384,0.36534 0.301167,0.36534 -0.01765,0 -0.16761,-0.14996 -0.333252,-0.33325 z m 49.18203,-18.08106 c 0.005,-0.11945 0.0292,-0.14375 0.0619,-0.062 0.0296,0.074 0.026,0.16246 -0.008,0.19654 -0.0341,0.0341 -0.0583,-0.0265 -0.0539,-0.13459 z m -56.806644,-3.28125 c 0.0049,-0.11945 0.02922,-0.14375 0.06195,-0.062 0.02962,0.074 0.02598,0.16246 -0.0081,0.19654 -0.03407,0.0341 -0.05831,-0.0265 -0.05385,-0.13459 z m 56.396484,-3.07617 c 0.005,-0.11945 0.0292,-0.143748 0.0619,-0.06195 0.0296,0.07402 0.026,0.16246 -0.008,0.19653 -0.0341,0.0341 -0.0583,-0.0265 -0.0539,-0.13458 z M 87.773438,82.402693 c 0,-0.02129 0.08075,-0.102042 0.179443,-0.179443 0.162633,-0.127545 0.16626,-0.123918 0.03871,0.03871 -0.133954,0.170805 -0.218158,0.225123 -0.218158,0.140729 z M 99.341126,77.14187 c 0.07402,-0.02962 0.16246,-0.02598 0.196533,0.0081 0.03407,0.03407 -0.02649,0.05831 -0.134582,0.05385 -0.119452,-0.0049 -0.14375,-0.02922 -0.06195,-0.06195 z m 0.506287,-0.100403 c 0.07049,-0.02845 0.185847,-0.02845 0.256347,0 0.0705,0.02845 0.0128,0.05172 -0.128174,0.05172 -0.140991,0 -0.198669,-0.02327 -0.128173,-0.05172 z m 0.724177,-0.104675 c 0.074,-0.02962 0.16247,-0.02598 0.19654,0.0081 0.0341,0.03407 -0.0265,0.05831 -0.13458,0.05385 -0.11946,-0.0049 -0.14375,-0.02922 -0.062,-0.06195 z m 7.89551,-0.10254 c 0.074,-0.02962 0.16246,-0.02598 0.19654,0.0081 0.0341,0.03407 -0.0265,0.05831 -0.13459,0.05385 -0.11945,-0.0049 -0.14375,-0.02922 -0.0619,-0.06195 z m -1.12793,-0.102539 c 0.074,-0.02962 0.16246,-0.02598 0.19654,0.0081 0.0341,0.03407 -0.0265,0.05831 -0.13459,0.05386 -0.11945,-0.0049 -0.14375,-0.02922 -0.062,-0.06195 z m -2.61974,-0.106073 c 0.15586,-0.02357 0.38658,-0.02294 0.51269,0.0014 0.12612,0.02434 -10e-4,0.04362 -0.28339,0.04285 -0.28198,-7.7e-4 -0.38517,-0.02068 -0.2293,-0.04425 z" id="checkmark-highlight" /><path style="display:inline;fill:#00bc7c" d="m 101.51367,133.03755 c -1.943754,-0.24145 -3.629755,-0.63315 -5.767258,-1.33989 -2.447611,-0.80928 -4.459672,-1.77606 -6.481594,-3.11436 -1.871594,-1.2388 -2.804383,-1.99609 -4.396763,-3.56954 -3.357048,-3.31714 -5.583701,-6.98057 -6.991591,-11.50302 -1.072477,-3.44502 -1.511533,-7.81536 -1.127999,-11.22802 0.430611,-3.831571 1.32844,-6.947738 2.887435,-10.02165 0.995197,-1.962259 1.466866,-2.728188 2.628533,-4.268402 1.280381,-1.697613 2.809995,-3.30455 4.483615,-4.710265 4.032311,-3.386839 8.58633,-5.436555 14.099122,-6.345866 1.60978,-0.265527 6.547,-0.26515 8.25439,6.3e-4 4.02338,0.626294 8.11145,2.119784 11.11916,4.062146 0.61688,0.398377 1.18052,0.724321 1.25253,0.724321 0.072,0 0.30558,-0.147636 0.51903,-0.328079 l 0.38809,-0.32808 -0.35337,0.379349 c -0.19435,0.208642 -0.40976,0.379349 -0.47869,0.379349 -0.0689,0 -0.22131,0.155286 -0.3386,0.345079 -0.1173,0.189793 -0.66324,0.778196 -1.2132,1.307562 -0.54996,0.529366 -1.55131,1.539181 -2.22522,2.244033 -3.05049,3.190524 -12.40437,12.509576 -12.55633,12.509576 -0.093,0 -0.83697,-0.650845 -1.65323,-1.446323 -0.81625,-0.795478 -1.71481,-1.599591 -1.99679,-1.786917 -0.77295,-0.513485 -1.9362,-0.86868 -2.837902,-0.866542 -1.741122,0.0041 -3.088163,0.548765 -4.284849,1.732453 -1.776987,1.757688 -2.477785,4.074467 -1.848203,6.110006 0.463484,1.49852 0.601576,1.66453 5.359267,6.44277 4.542557,4.56219 4.686337,4.68648 5.907397,5.10658 1.29214,0.44457 2.88861,0.30683 4.16347,-0.3592 0.78625,-0.41077 1.35482,-0.95507 9.74199,-9.32618 3.77857,-3.77133 7.10083,-7.03209 7.38282,-7.246142 0.43915,-0.333357 4.52981,-4.367454 5.12695,-5.056054 0.11279,-0.130069 0.1474,-0.161245 0.0769,-0.06928 -0.0705,0.09197 -0.12817,0.237566 -0.12817,0.323558 0,0.08599 0.3049,0.79757 0.67756,1.581282 1.9227,4.043482 2.85949,9.053726 2.51056,13.427316 -0.33712,4.2257 -1.17734,7.34961 -2.97712,11.0689 -1.29041,2.66666 -2.92361,4.93594 -5.13318,7.13239 -2.25569,2.24229 -4.58695,3.9011 -7.41531,5.27637 -2.98816,1.45297 -5.48982,2.23223 -8.58048,2.67282 -1.64229,0.23412 -6.20004,0.28519 -7.79297,0.0873 z m 5.84473,-6.65499 c 3.61895,-0.38811 6.831,-1.53212 9.82486,-3.49926 2.06964,-1.35988 3.67443,-2.86052 5.25301,-4.91211 1.00347,-1.30415 1.1017,-1.4659 2.04517,-3.36757 2.25154,-4.53828 2.80697,-9.74734 1.57613,-14.781841 -0.30921,-1.264756 -0.84801,-2.922364 -0.9499,-2.922364 -0.0416,0 -3.23316,3.146335 -7.09238,6.991855 -8.68386,8.65304 -9.12328,9.07382 -9.91823,9.49753 -1.58106,0.8427 -3.44222,0.82707 -5.17078,-0.0434 -0.60395,-0.30414 -1.03269,-0.66025 -2.33239,-1.93728 -3.975421,-3.90605 -7.075559,-7.11099 -7.468894,-7.72139 -0.607849,-0.94329 -0.962834,-2.09145 -0.967164,-3.12819 -0.01269,-3.037605 2.040116,-5.756338 4.8913,-6.478042 0.786763,-0.199149 2.204234,-0.198047 2.973468,0.0023 1.11023,0.289179 1.74723,0.724259 3.48796,2.382343 0.90379,0.860876 1.68939,1.552922 1.74579,1.53788 0.2179,-0.05812 11.12549,-11.122144 11.12549,-11.28505 0,-0.222088 -0.47798,-0.515218 -1.99952,-1.226254 -1.51164,-0.706414 -1.57323,-0.730346 -2.99716,-1.164731 -2.63093,-0.802589 -5.05118,-1.068075 -7.92291,-0.869093 -2.02191,0.140099 -3.07168,0.342562 -5.076019,0.978985 -5.440958,1.727628 -10.365916,6.006544 -12.868913,11.180807 -1.3539,2.79882 -1.990859,5.403655 -2.11874,8.664555 -0.09787,2.49562 0.172232,4.72429 0.838739,6.92058 0.691474,2.27858 1.496399,3.98141 2.851446,6.03229 1.099191,1.66364 3.580856,4.17787 5.196394,5.26459 2.180309,1.46663 4.053263,2.37055 6.306152,3.04346 2.884761,0.86164 5.882961,1.14871 8.767091,0.83941 z m 25.0708,-37.071035 c 0.78804,-0.789551 1.45587,-1.435547 1.48407,-1.435547 0.0282,0 -0.59349,0.645996 -1.38153,1.435547 -0.78804,0.789551 -1.45587,1.435547 -1.48407,1.435547 -0.0282,0 0.59349,-0.645996 1.38153,-1.435547 z m 1.69189,-1.679339 c 0,-0.02129 0.0807,-0.102043 0.17945,-0.179444 0.16263,-0.127545 0.16626,-0.123918 0.0387,0.03871 -0.13395,0.170805 -0.21816,0.225123 -0.21816,0.14073 z m 0.71778,-0.711145 c 0,-0.01765 0.14996,-0.16761 0.33325,-0.333252 l 0.33325,-0.301167 -0.30117,0.333252 c -0.28072,0.310638 -0.36533,0.380385 -0.36533,0.301167 z m 0.92285,-0.897186 c 0,-0.0282 0.27685,-0.325236 0.61523,-0.660084 0.33838,-0.334848 0.61524,-0.585744 0.61524,-0.557545 0,0.0282 -0.27686,0.325236 -0.61524,0.660084 -0.33838,0.334848 -0.61523,0.585743 -0.61523,0.557545 z m 1.74316,-1.685475 c 0.13246,-0.140991 0.2639,-0.256347 0.2921,-0.256347 0.0282,0 -0.0571,0.115356 -0.18956,0.256347 -0.13245,0.140992 -0.2639,0.256348 -0.29209,0.256348 -0.0282,0 0.0571,-0.115356 0.18955,-0.256348 z m 1.84571,-1.948242 c 0.13245,-0.140991 0.26389,-0.256348 0.29209,-0.256348 0.0282,0 -0.0571,0.115357 -0.18955,0.256348 -0.13246,0.140991 -0.2639,0.256348 -0.2921,0.256348 -0.0282,0 0.0571,-0.115357 0.18956,-0.256348 z m 1.5338,-1.409912 c 0.42492,-0.452729 0.51698,-0.534136 0.51698,-0.45714 0,0.01646 -0.21918,0.235633 -0.48706,0.48706 l -0.48706,0.457141 z m -17.88878,-0.692139 c 0.27774,-0.281982 0.52805,-0.512695 0.55625,-0.512695 0.0282,0 -0.17597,0.230713 -0.45372,0.512695 -0.27774,0.281983 -0.52805,0.512696 -0.55625,0.512696 -0.0282,0 0.17597,-0.230713 0.45372,-0.512696 z m 19.58496,-1.127929 c 0.10207,-0.112793 0.20866,-0.205078 0.23686,-0.205078 0.0282,0 -0.0323,0.09229 -0.13432,0.205078 -0.10208,0.112793 -0.20867,0.205078 -0.23687,0.205078 -0.0282,0 0.0323,-0.09228 0.13433,-0.205078 z m -17.77269,-0.5896 c 0.13118,-0.15509 0.46922,-0.487663 0.7512,-0.739051 0.35776,-0.318941 0.29662,-0.233725 -0.20233,0.281982 -0.73423,0.758913 -0.97084,0.955944 -0.54887,0.457069 z m 1.77061,-1.794434 c 0.27078,-0.324279 0.51141,-0.589599 0.53474,-0.589599 0.1099,0 -0.1965,0.399146 -0.59034,0.769043 l -0.43671,0.410156 z m 19.43714,-1.051025 c 0.19131,-0.197388 0.37091,-0.358887 0.39911,-0.358887 0.0282,0 -0.10526,0.161499 -0.29658,0.358887 -0.19131,0.197388 -0.37091,0.358887 -0.39911,0.358887 -0.0282,0 0.10526,-0.161499 0.29658,-0.358887 z m -18.20069,-0.241943 c 0.28198,-0.298856 0.65112,-0.639182 0.82031,-0.75628 0.35562,-0.246125 0.25114,-0.13716 -0.6665,0.695137 l -0.6665,0.604517 z m 1.84185,-1.847982 c 0.27986,-0.288652 0.52599,-0.524821 0.54695,-0.524821 0.10394,0 -0.64397,0.838946 -0.83507,0.936719 -0.1214,0.06211 0.008,-0.123247 0.28812,-0.411898 z m 2.46479,-2.370524 c 0.44853,-0.451172 0.83857,-0.820313 0.86677,-0.820313 0.0282,0 -0.3157,0.369141 -0.76423,0.820313 -0.44852,0.451172 -0.83857,0.820312 -0.86677,0.820312 -0.0282,0 0.31571,-0.36914 0.76423,-0.820312 z m 3.79843,-3.81958 c 0.94853,-1.001038 1.74734,-1.820068 1.77515,-1.820068 0.0779,0 -0.31711,0.419473 -1.97319,2.095334 l -1.52656,1.544802 z m 18.04239,0.333252 c 0.10208,-0.112793 0.20867,-0.205078 0.23687,-0.205078 0.0282,0 -0.0323,0.09229 -0.13433,0.205078 -0.10207,0.112793 -0.20866,0.205078 -0.23686,0.205078 -0.0282,0 0.0323,-0.09229 0.13432,-0.205078 z m 1.58936,-1.566287 c 0,-0.01551 0.3576,-0.373116 0.79468,-0.794678 l 0.79467,-0.766477 -0.76647,0.794678 c -0.71189,0.738079 -0.82288,0.841464 -0.82288,0.766477 z m -16.45752,-2.125119 c 0.10207,-0.112793 0.20866,-0.205079 0.23686,-0.205079 0.0282,0 -0.0323,0.09229 -0.13432,0.205079 -0.10208,0.112793 -0.20867,0.205078 -0.23687,0.205078 -0.0282,0 0.0323,-0.09229 0.13433,-0.205078 z m 19.43925,-3.033448 c 0.005,-0.119452 0.0292,-0.143749 0.0619,-0.06195 0.0296,0.07402 0.026,0.16246 -0.008,0.196533 -0.0341,0.03407 -0.0583,-0.02649 -0.0539,-0.134583 z m -15.38041,-0.892052 c 0.0235,-0.01596 0.13501,-0.09671 0.2478,-0.179443 0.1897,-0.139147 0.19452,-0.136971 0.0643,0.02901 -0.0774,0.09869 -0.18891,0.179443 -0.2478,0.179443 -0.0589,0 -0.0879,-0.01306 -0.0644,-0.02901 z M 158.53349,59.823 c 0.005,-0.119453 0.0292,-0.14375 0.0619,-0.06195 0.0296,0.07402 0.026,0.16246 -0.008,0.196533 -0.0341,0.03407 -0.0583,-0.02649 -0.0539,-0.134583 z m -14.61992,-0.452881 c 0.10208,-0.112793 0.23174,-0.205078 0.28814,-0.205078 0.0564,0 0.019,0.09228 -0.0831,0.205078 -0.10207,0.112793 -0.23173,0.205078 -0.28813,0.205078 -0.0564,0 -0.019,-0.09229 0.083,-0.205078 z m 0.56397,-0.448871 c 0,-0.02129 0.0807,-0.102042 0.17944,-0.179443 0.16264,-0.127545 0.16626,-0.123918 0.0387,0.03871 -0.13396,0.170804 -0.21816,0.225123 -0.21816,0.140729 z m 0.51269,-0.512695 c 0,-0.02129 0.0807,-0.102042 0.17945,-0.179443 0.16263,-0.127546 0.16626,-0.123919 0.0387,0.03871 -0.13395,0.170804 -0.21816,0.225122 -0.21816,0.140729 z m 0.30762,-0.39868 c 0,-0.01498 0.56382,-0.580227 1.25294,-1.256103 1.09539,-1.074347 0.93888,-0.892392 -0.76177,0.885622 -0.33144,0.34652 -0.49117,0.466998 -0.49117,0.370481 z m 11.5814,-1.895369 -0.35337,-0.384522 0.38452,0.353367 c 0.21149,0.194351 0.38452,0.367386 0.38452,0.384521 0,0.0783 -0.0868,0.0045 -0.41567,-0.353366 z m -0.77327,-0.769043 -0.19534,-0.230713 0.23072,0.195335 c 0.21681,0.183568 0.27739,0.26609 0.19533,0.26609 -0.0195,0 -0.12328,-0.10382 -0.23071,-0.230712 z m -8.10626,0.05058 c 0.0401,-0.06486 0.21825,-0.221439 0.39592,-0.34795 0.17767,-0.12651 0.29023,-0.176949 0.25015,-0.112087 -0.0401,0.06486 -0.21825,0.221439 -0.39592,0.347949 -0.17767,0.12651 -0.29023,0.17695 -0.25015,0.112088 z m 0.78446,-0.588114 c 0,-0.02634 0.17303,-0.135195 0.38452,-0.241898 0.41454,-0.20915 0.93273,-0.386493 0.84084,-0.287761 -0.0855,0.09185 -1.22536,0.584557 -1.22536,0.529659 z m 1.53082,-0.670283 c 0.137,-0.05859 0.52921,-0.126145 0.87159,-0.150111 0.61739,-0.04322 0.61829,-0.04288 0.1098,0.04071 -0.28199,0.04635 -0.6742,0.113905 -0.87159,0.150111 -0.30942,0.05676 -0.32456,0.05115 -0.1098,-0.04071 z m 2.49384,-0.170234 c 0.0987,-0.02579 0.26019,-0.02579 0.35888,0 0.0987,0.02579 0.0179,0.04689 -0.17944,0.04689 -0.19739,0 -0.27814,-0.0211 -0.17944,-0.04689 z" id="checkmark-body" /><path style="display:inline;fill:#545b69" d="m 100.23193,191.69232 c -1.240719,-0.0708 -2.740352,-0.18085 -3.332515,-0.24453 -0.592163,-0.0637 -1.561158,-0.16392 -2.153321,-0.22274 -4.218422,-0.41907 -9.157212,-1.42336 -14.509277,-2.95045 -14.226355,-4.05916 -27.722356,-12.14532 -38.028803,-22.78507 -5.301726,-5.47317 -9.62615,-11.3479 -13.542321,-18.39724 -3.117418,-5.61154 -6.236375,-13.43995 -7.700817,-19.32862 -0.729719,-2.93427 -1.213238,-5.01969 -1.378918,-5.94726 -0.06548,-0.36658 -0.158869,-0.87415 -0.207538,-1.12793 -0.04867,-0.25379 -0.139446,-0.78443 -0.201726,-1.1792 -0.06228,-0.39478 -0.136584,-0.8562 -0.165121,-1.02539 -0.06273,-0.37192 -0.180159,-1.34931 -0.455285,-3.78951 -0.627054,-5.56159 -0.665586,-13.32294 -0.09318,-18.769086 0.302483,-2.877974 0.55972,-4.811697 0.818426,-6.152343 0.0653,-0.338379 0.138474,-0.753663 0.162614,-0.922852 0.06133,-0.429826 0.241938,-1.366798 0.345892,-1.794434 0.04798,-0.197387 0.140268,-0.635742 0.205078,-0.974121 0.06481,-0.338379 0.157624,-0.776733 0.206253,-0.974121 0.04863,-0.197387 0.140385,-0.589599 0.203904,-0.871582 0.06352,-0.281982 0.155274,-0.674194 0.203903,-0.871582 0.04863,-0.197387 0.145886,-0.626357 0.216128,-0.953265 0.07024,-0.326908 0.165968,-0.618022 0.212726,-0.64692 0.04676,-0.0289 0.08502,-0.163005 0.08502,-0.298014 0,-0.135009 0.0419,-0.351463 0.09311,-0.481009 0.05121,-0.129546 0.191356,-0.581607 0.311435,-1.004581 0.539447,-1.900178 1.442917,-4.672701 1.754232,-5.383301 0.09883,-0.225585 0.389951,-0.963867 0.646936,-1.640625 2.052291,-5.404613 5.069146,-11.265425 8.36595,-16.252441 4.791813,-7.24849 10.188971,-13.234659 17.28161,-19.167614 2.851655,-2.385395 8.121308,-6.028253 11.434423,-7.904503 0.366577,-0.207596 0.966431,-0.551388 1.333008,-0.763983 2.671322,-1.549222 9.51515,-4.713604 11.791992,-5.452265 0.253784,-0.08233 0.553711,-0.190882 0.666504,-0.241217 0.363652,-0.162286 2.920074,-1.013834 4.768066,-1.58825 0.310181,-0.09641 0.886963,-0.260445 1.281738,-0.364513 0.394776,-0.104069 0.994629,-0.265776 1.333008,-0.359351 0.656561,-0.181563 1.361807,-0.342366 2.922364,-0.666327 0.535766,-0.111222 1.412475,-0.295266 1.948242,-0.408988 0.535766,-0.113721 1.237801,-0.248129 1.560077,-0.298684 0.322276,-0.05055 0.626798,-0.117158 0.676715,-0.148008 0.04992,-0.03085 0.616802,-0.126896 1.259746,-0.213434 0.642944,-0.08654 1.468916,-0.207027 1.835493,-0.267752 0.634227,-0.105063 1.063921,-0.155241 3.435058,-0.401131 3.598162,-0.373134 7.304301,-0.542019 10.561531,-0.481278 2.9696,0.05538 6.68716,0.284161 7.94678,0.489055 0.36657,0.05963 1.12792,0.150769 1.69189,0.202533 0.56396,0.05176 1.71753,0.209694 2.56348,0.350955 0.84594,0.141262 1.86108,0.307206 2.25586,0.368765 0.7895,0.123111 1.39867,0.236626 2.10205,0.39171 0.25378,0.05596 0.59985,0.130269 0.76904,0.165143 0.83856,0.172846 2.63231,0.607993 3.17871,0.771126 0.16919,0.05051 0.58447,0.158128 0.92285,0.239145 5.23285,1.252877 12.99772,4.242522 17.94434,6.908962 0.50757,0.273601 1.33813,0.721405 1.8457,0.995119 4.28795,2.312343 9.2921,5.752334 13.55026,9.314824 5.72324,4.788213 10.46885,9.906177 14.66695,15.817774 1.1754,1.655152 3.53231,5.280547 4.36304,6.711211 2.37041,4.082307 4.7758,9.212751 6.44204,13.740234 0.84063,2.284139 2.65436,8.334656 3.07375,10.253906 0.60715,2.778558 0.78028,3.688421 1.12184,5.895996 0.0524,0.338379 0.1423,0.915161 0.19985,1.281738 0.0973,0.619421 0.15292,1.091474 0.41706,3.537598 0.28553,2.644182 0.51211,6.886451 0.51282,9.601661 8.5e-4,3.23369 -0.32889,8.3346 -0.72488,11.21377 -0.8474,6.1612 -1.11178,7.46448 -2.72485,13.43262 -0.53701,1.98681 -2.13168,6.59284 -3.14181,9.0747 -0.45463,1.11703 -2.03479,4.54322 -2.7939,6.05791 -3.03888,6.06359 -6.66982,11.49621 -11.23899,16.81578 -7.47962,8.70798 -16.58105,15.76882 -27.14124,21.05603 -4.08751,2.04652 -9.79846,4.30163 -13.75724,5.4324 -4.49454,1.2838 -4.71402,1.33973 -7.4659,1.90235 -7.56084,1.54581 -15.25904,2.11898 -22.73185,1.6925 z m 10.92041,-6.71099 c 4.7824,-0.39176 9.16253,-1.09081 13.16351,-2.10086 6.13121,-1.54782 10.79543,-3.19901 15.85538,-5.613 12.29753,-5.86685 23.33677,-15.23234 30.94828,-26.25594 2.94367,-4.26327 4.66671,-7.27926 6.8344,-11.96287 2.92979,-6.33023 5.34895,-14.30756 6.3121,-20.81452 0.82858,-5.59773 1.02455,-8.15666 1.02137,-13.33668 -0.002,-3.86887 -0.18971,-6.984319 -0.61657,-10.253904 -0.0552,-0.422974 -0.14481,-1.138184 -0.19908,-1.589355 -0.0543,-0.451172 -0.14405,-1.074097 -0.19953,-1.384278 -0.0555,-0.31018 -0.22106,-1.256103 -0.36798,-2.102051 -0.30632,-1.763792 -0.44106,-2.379089 -0.98796,-4.511718 -0.97365,-3.796753 -1.40741,-5.203604 -2.5694,-8.333653 -4.09072,-11.019153 -10.37125,-20.741935 -18.70727,-28.960379 -9.29447,-9.163386 -20.96804,-16.048116 -33.26829,-19.62067 -1.8206,-0.528785 -2.5911,-0.736619 -3.58126,-0.966012 -0.47937,-0.111057 -1.03308,-0.249766 -1.23047,-0.308243 -0.91424,-0.270845 -6.06669,-1.18145 -8.15185,-1.440696 -4.23134,-0.526077 -5.61405,-0.60936 -10.15137,-0.611442 -5.348013,-0.0025 -8.530365,0.225484 -12.971193,0.92907 -13.989029,2.216363 -26.523001,7.691593 -37.529297,16.393968 -4.061368,3.211212 -8.800142,7.911294 -12.226687,12.126858 -4.691968,5.772372 -8.208193,11.564974 -11.284109,18.589359 -0.61277,1.399368 -0.956752,2.278805 -1.96512,5.024105 -0.889963,2.422941 -1.942521,6.077763 -2.510082,8.715821 -0.121333,0.563964 -0.261783,1.209961 -0.312111,1.435547 -0.05033,0.225585 -0.144504,0.710083 -0.20928,1.07666 -0.06477,0.366577 -0.16029,0.874145 -0.212255,1.127929 -0.344912,1.68446 -0.86514,5.926057 -1.062699,8.664551 -0.256555,3.556273 -0.289064,5.264083 -0.16981,8.920903 0.13141,4.0296 0.240582,5.47178 0.624852,8.25439 0.05062,0.36658 0.145,1.05872 0.209726,1.53809 1.491087,11.04314 6.260588,23.21303 12.839451,32.76123 3.030074,4.39767 5.923914,7.86715 9.658646,11.57992 7.015497,6.97425 15.025963,12.39864 24.358736,16.49484 8.70192,3.81932 18.640285,6.15326 28.249512,6.63416 2.04862,0.10252 8.71196,0.0378 10.40771,-0.10113 z" id="target-inner-shadow" ns2:nodetypes="sscssssssssssssssssssssssssssssssssssssssssssssssssssssssssccsssssssssssscssssscssssssssssscsssssssssssssssssc" /><path style="display:inline;fill:#009060" d="m 104.69238,113.74752 c -0.44523,-0.0745 -1.26309,-0.35839 -1.79443,-0.62281 -0.77382,-0.3851 -9.236568,-8.90488 -9.729329,-9.79491 -1.097151,-1.98169 -1.066373,-3.904689 0.09581,-5.986047 0.551369,-0.987452 1.762552,-2.161602 2.671458,-2.589777 1.436708,-0.676815 2.995949,-0.806205 4.329231,-0.359251 1.09011,0.365432 1.58942,0.727636 3.29661,2.391375 0.81626,0.795478 1.56021,1.446323 1.65323,1.446323 0.15196,0 9.50584,-9.319052 12.55633,-12.509576 0.67391,-0.704852 1.67526,-1.714667 2.22522,-2.244033 0.54996,-0.529366 1.0959,-1.117769 1.2132,-1.307562 0.11729,-0.189793 0.25281,-0.345079 0.30115,-0.345079 0.12303,0 15.5392,-15.396899 16.17011,-16.149902 0.75157,-0.897006 3.76735,-3.924962 4.81672,-4.836165 0.49675,-0.431347 1.89525,-1.78908 3.10778,-3.017186 2.40833,-2.43928 2.84738,-2.812244 3.84069,-3.262635 0.8856,-0.401547 1.65973,-0.557932 2.77308,-0.560196 1.81604,-0.0037 3.05955,0.513205 4.34592,1.806495 1.35517,1.362463 2.01078,2.904617 1.99448,4.691464 -0.0104,1.139904 -0.19143,1.884837 -0.71605,2.94658 -0.59871,1.211703 -1.40672,2.043069 -19.55921,20.124709 -4.5577,4.539917 -9.26234,9.239929 -10.45475,10.44447 -1.1924,1.204541 -2.39872,2.365177 -2.6807,2.579191 -0.28199,0.214013 -3.60425,3.474742 -7.38282,7.246072 -8.39047,8.37441 -8.95582,8.91559 -9.74199,9.32568 -0.96822,0.50503 -2.35111,0.74692 -3.33174,0.58277 z" id="checkmark-shadow" /></g></g></svg>